<svg xmlns="http://www.w3.org/2000/svg" version="1.1" xmlns:xlink="http://www.w3.org/1999/xlink" xmlns:svgjs="http://svgjs.com/svgjs" width="1440" height="560" preserveAspectRatio="none" viewBox="0 0 1440 560"><g mask="url(&quot;#SvgjsMask1050&quot;)" fill="none"><rect width="1440" height="560" x="0" y="0" fill="rgba(14, 42, 71, 1)"></rect><path d="M-91.8 373.18L-91.8 373.18" stroke="rgba(14, 42, 71, 1)" stroke-width="1.5"></path><path d="M-91.8 373.18L70.95 365.5" stroke="rgba(14, 42, 71, 1)" stroke-width="1.5"></path><path d="M-91.8 373.18L-39.4 555.07" stroke="rgba(14, 42, 71, 1)" stroke-width="1.5"></path><path d="M-91.8 373.18L84.17 544.25" stroke="rgba(14, 42, 71, 1)" stroke-width="1.5"></path><path d="M-91.8 373.18L-85.65 671.62" stroke="rgba(14, 42, 71, 1)" stroke-width="1.5"></path><path d="M-91.8 373.18L250.63 346.91" stroke="rgba(14, 42, 71, 1)" stroke-width="1.5"></path><path d="M-39.4 555.07L-39.4 555.07" stroke="rgba(14, 42, 71, 1)" stroke-width="1.5"></path><path d="M-39.4 555.07L84.17 544.25" stroke="rgba(14, 42, 71, 1)" stroke-width="1.5"></path><path d="M-39.4 555.07L-85.65 671.62" stroke="rgba(14, 42, 71, 1)" stroke-width="1.5"></path><path d="M-39.4 555.07L70.95 365.5" stroke="rgba(14, 42, 71, 1)" stroke-width="1.5"></path><path d="M-39.4 555.07L187.51 699.71" stroke="rgba(14, 42, 71, 1)" stroke-width="1.5"></path><path d="M-39.4 555.07L236.22 544.69" stroke="rgba(14, 42, 71, 1)" stroke-width="1.5"></path><path d="M-85.65 671.62L-85.65 671.62" stroke="rgba(14, 42, 71, 1)" stroke-width="1.5"></path><path d="M-85.65 671.62L84.17 544.25" stroke="rgba(14, 42, 71, 1)" stroke-width="1.5"></path><path d="M-85.65 671.62L187.51 699.71" stroke="rgba(14, 42, 71, 1)" stroke-width="1.5"></path><path d="M-85.65 671.62L70.95 365.5" stroke="rgba(14, 42, 71, 1)" stroke-width="1.5"></path><path d="M-85.65 671.62L236.22 544.69" stroke="rgba(14, 42, 71, 1)" stroke-width="1.5"></path><path d="M70.95 365.5L70.95 365.5" stroke="rgba(14, 42, 71, 1)" stroke-width="1.5"></path><path d="M70.95 365.5L84.17 544.25" stroke="rgba(14, 42, 71, 1)" stroke-width="1.5"></path><path d="M70.95 365.5L250.63 346.91" stroke="rgba(14, 42, 71, 1)" stroke-width="1.5"></path><path d="M84.17 544.25L84.17 544.25" stroke="rgba(14, 42, 71, 1)" stroke-width="1.5"></path><path d="M84.17 544.25L236.22 544.69" stroke="rgba(14, 42, 71, 1)" stroke-width="1.5"></path><path d="M84.17 544.25L187.51 699.71" stroke="rgba(14, 42, 71, 1)" stroke-width="1.5"></path><path d="M250.63 346.91L250.63 346.91" stroke="rgba(14, 42, 71, 1)" stroke-width="1.5"></path><path d="M250.63 346.91L405.63 397.2" stroke="rgba(14, 42, 71, 1)" stroke-width="1.5"></path><path d="M250.63 346.91L236.22 544.69" stroke="rgba(14, 42, 71, 1)" stroke-width="1.5"></path><path d="M250.63 346.91L84.17 544.25" stroke="rgba(14, 42, 71, 1)" stroke-width="1.5"></path><path d="M250.63 346.91L560.17 390.77" stroke="rgba(14, 42, 71, 1)" stroke-width="1.5"></path><path d="M250.63 346.91L515.83 537.3" stroke="rgba(14, 42, 71, 1)" stroke-width="1.5"></path><path d="M236.22 544.69L236.22 544.69" stroke="rgba(14, 42, 71, 1)" stroke-width="1.5"></path><path d="M236.22 544.69L187.51 699.71" stroke="rgba(14, 42, 71, 1)" stroke-width="1.5"></path><path d="M187.51 699.71L187.51 699.71" stroke="rgba(14, 42, 71, 1)" stroke-width="1.5"></path><path d="M187.51 699.71L364.54 700.08" stroke="rgba(14, 42, 71, 1)" stroke-width="1.5"></path><path d="M187.51 699.71L491.1 673.31" stroke="rgba(14, 42, 71, 1)" stroke-width="1.5"></path><path d="M405.63 397.2L405.63 397.2" stroke="rgba(14, 42, 71, 1)" stroke-width="1.5"></path><path d="M405.63 397.2L560.17 390.77" stroke="rgba(14, 42, 71, 1)" stroke-width="1.5"></path><path d="M405.63 397.2L515.83 537.3" stroke="rgba(14, 42, 71, 1)" stroke-width="1.5"></path><path d="M405.63 397.2L236.22 544.69" stroke="rgba(14, 42, 71, 1)" stroke-width="1.5"></path><path d="M405.63 397.2L644.29 342.11" stroke="rgba(14, 42, 71, 1)" stroke-width="1.5"></path><path d="M364.54 700.08L364.54 700.08" stroke="rgba(14, 42, 71, 1)" stroke-width="1.5"></path><path d="M364.54 700.08L491.1 673.31" stroke="rgba(14, 42, 71, 1)" stroke-width="1.5"></path><path d="M560.17 390.77L560.17 390.77" stroke="rgba(14, 42, 71, 1)" stroke-width="1.5"></path><path d="M560.17 390.77L644.29 342.11" stroke="rgba(14, 42, 71, 1)" stroke-width="1.5"></path><path d="M560.17 390.77L515.83 537.3" stroke="rgba(14, 42, 71, 1)" stroke-width="1.5"></path><path d="M515.83 537.3L515.83 537.3" stroke="rgba(14, 42, 71, 1)" stroke-width="1.5"></path><path d="M515.83 537.3L491.1 673.31" stroke="rgba(14, 42, 71, 1)" stroke-width="1.5"></path><path d="M515.83 537.3L656.53 540.65" stroke="rgba(14, 42, 71, 1)" stroke-width="1.5"></path><path d="M515.83 537.3L677.75 665.74" stroke="rgba(14, 42, 71, 1)" stroke-width="1.5"></path><path d="M515.83 537.3L364.54 700.08" stroke="rgba(14, 42, 71, 1)" stroke-width="1.5"></path><path d="M491.1 673.31L491.1 673.31" stroke="rgba(14, 42, 71, 1)" stroke-width="1.5"></path><path d="M705.81 256.63L705.81 256.63" stroke="rgba(14, 42, 71, 1)" stroke-width="1.5"></path><path d="M705.81 256.63L644.29 342.11" stroke="rgba(14, 42, 71, 1)" stroke-width="1.5"></path><path d="M705.81 256.63L849.06 217.19" stroke="rgba(14, 42, 71, 1)" stroke-width="1.5"></path><path d="M705.81 256.63L560.17 390.77" stroke="rgba(14, 42, 71, 1)" stroke-width="1.5"></path><path d="M705.81 256.63L855.85 399.44" stroke="rgba(14, 42, 71, 1)" stroke-width="1.5"></path><path d="M705.81 256.63L862.19 90.93" stroke="rgba(14, 42, 71, 1)" stroke-width="1.5"></path><path d="M644.29 342.11L644.29 342.11" stroke="rgba(14, 42, 71, 1)" stroke-width="1.5"></path><path d="M644.29 342.11L656.53 540.65" stroke="rgba(14, 42, 71, 1)" stroke-width="1.5"></path><path d="M656.53 540.65L656.53 540.65" stroke="rgba(14, 42, 71, 1)" stroke-width="1.5"></path><path d="M656.53 540.65L677.75 665.74" stroke="rgba(14, 42, 71, 1)" stroke-width="1.5"></path><path d="M656.53 540.65L560.17 390.77" stroke="rgba(14, 42, 71, 1)" stroke-width="1.5"></path><path d="M656.53 540.65L848.85 513.92" stroke="rgba(14, 42, 71, 1)" stroke-width="1.5"></path><path d="M677.75 665.74L677.75 665.74" stroke="rgba(14, 42, 71, 1)" stroke-width="1.5"></path><path d="M677.75 665.74L850.51 650.74" stroke="rgba(14, 42, 71, 1)" stroke-width="1.5"></path><path d="M677.75 665.74L491.1 673.31" stroke="rgba(14, 42, 71, 1)" stroke-width="1.5"></path><path d="M677.75 665.74L848.85 513.92" stroke="rgba(14, 42, 71, 1)" stroke-width="1.5"></path><path d="M677.75 665.74L955.17 710.15" stroke="rgba(14, 42, 71, 1)" stroke-width="1.5"></path><path d="M862.19 90.93L862.19 90.93" stroke="rgba(14, 42, 71, 1)" stroke-width="1.5"></path><path d="M862.19 90.93L943.89 54.07" stroke="rgba(14, 42, 71, 1)" stroke-width="1.5"></path><path d="M862.19 90.93L849.06 217.19" stroke="rgba(14, 42, 71, 1)" stroke-width="1.5"></path><path d="M862.19 90.93L988.65 226.39" stroke="rgba(14, 42, 71, 1)" stroke-width="1.5"></path><path d="M862.19 90.93L997.38 -108.78" stroke="rgba(14, 42, 71, 1)" stroke-width="1.5"></path><path d="M862.19 90.93L1123.63 195.28" stroke="rgba(14, 42, 71, 1)" stroke-width="1.5"></path><path d="M849.06 217.19L849.06 217.19" stroke="rgba(14, 42, 71, 1)" stroke-width="1.5"></path><path d="M849.06 217.19L988.65 226.39" stroke="rgba(14, 42, 71, 1)" stroke-width="1.5"></path><path d="M849.06 217.19L855.85 399.44" stroke="rgba(14, 42, 71, 1)" stroke-width="1.5"></path><path d="M849.06 217.19L943.89 54.07" stroke="rgba(14, 42, 71, 1)" stroke-width="1.5"></path><path d="M849.06 217.19L991.68 350.69" stroke="rgba(14, 42, 71, 1)" stroke-width="1.5"></path><path d="M855.85 399.44L855.85 399.44" stroke="rgba(14, 42, 71, 1)" stroke-width="1.5"></path><path d="M855.85 399.44L848.85 513.92" stroke="rgba(14, 42, 71, 1)" stroke-width="1.5"></path><path d="M855.85 399.44L991.68 350.69" stroke="rgba(14, 42, 71, 1)" stroke-width="1.5"></path><path d="M848.85 513.92L848.85 513.92" stroke="rgba(14, 42, 71, 1)" stroke-width="1.5"></path><path d="M848.85 513.92L850.51 650.74" stroke="rgba(14, 42, 71, 1)" stroke-width="1.5"></path><path d="M848.85 513.92L1008.86 538.91" stroke="rgba(14, 42, 71, 1)" stroke-width="1.5"></path><path d="M848.85 513.92L991.68 350.69" stroke="rgba(14, 42, 71, 1)" stroke-width="1.5"></path><path d="M850.51 650.74L850.51 650.74" stroke="rgba(14, 42, 71, 1)" stroke-width="1.5"></path><path d="M850.51 650.74L955.17 710.15" stroke="rgba(14, 42, 71, 1)" stroke-width="1.5"></path><path d="M997.38 -108.78L997.38 -108.78" stroke="rgba(14, 42, 71, 1)" stroke-width="1.5"></path><path d="M997.38 -108.78L1152.61 -86.56" stroke="rgba(14, 42, 71, 1)" stroke-width="1.5"></path><path d="M997.38 -108.78L943.89 54.07" stroke="rgba(14, 42, 71, 1)" stroke-width="1.5"></path><path d="M997.38 -108.78L1151.86 97.74" stroke="rgba(14, 42, 71, 1)" stroke-width="1.5"></path><path d="M997.38 -108.78L1284.19 -86.02" stroke="rgba(14, 42, 71, 1)" stroke-width="1.5"></path><path d="M943.89 54.07L943.89 54.07" stroke="rgba(14, 42, 71, 1)" stroke-width="1.5"></path><path d="M943.89 54.07L988.65 226.39" stroke="rgba(14, 42, 71, 1)" stroke-width="1.5"></path><path d="M988.65 226.39L988.65 226.39" stroke="rgba(14, 42, 71, 1)" stroke-width="1.5"></path><path d="M988.65 226.39L991.68 350.69" stroke="rgba(14, 42, 71, 1)" stroke-width="1.5"></path><path d="M991.68 350.69L991.68 350.69" stroke="rgba(14, 42, 71, 1)" stroke-width="1.5"></path><path d="M991.68 350.69L1094.31 403.51" stroke="rgba(14, 42, 71, 1)" stroke-width="1.5"></path><path d="M991.68 350.69L1008.86 538.91" stroke="rgba(14, 42, 71, 1)" stroke-width="1.5"></path><path d="M991.68 350.69L1117.53 500.1" stroke="rgba(14, 42, 71, 1)" stroke-width="1.5"></path><path d="M1008.86 538.91L1008.86 538.91" stroke="rgba(14, 42, 71, 1)" stroke-width="1.5"></path><path d="M1008.86 538.91L1117.53 500.1" stroke="rgba(14, 42, 71, 1)" stroke-width="1.5"></path><path d="M1008.86 538.91L1094.31 403.51" stroke="rgba(14, 42, 71, 1)" stroke-width="1.5"></path><path d="M1008.86 538.91L1110.97 668.09" stroke="rgba(14, 42, 71, 1)" stroke-width="1.5"></path><path d="M955.17 710.15L955.17 710.15" stroke="rgba(14, 42, 71, 1)" stroke-width="1.5"></path><path d="M955.17 710.15L1110.97 668.09" stroke="rgba(14, 42, 71, 1)" stroke-width="1.5"></path><path d="M955.17 710.15L1008.86 538.91" stroke="rgba(14, 42, 71, 1)" stroke-width="1.5"></path><path d="M1152.61 -86.56L1152.61 -86.56" stroke="rgba(14, 42, 71, 1)" stroke-width="1.5"></path><path d="M1152.61 -86.56L1284.19 -86.02" stroke="rgba(14, 42, 71, 1)" stroke-width="1.5"></path><path d="M1152.61 -86.56L1243.2 53.34" stroke="rgba(14, 42, 71, 1)" stroke-width="1.5"></path><path d="M1152.61 -86.56L1151.86 97.74" stroke="rgba(14, 42, 71, 1)" stroke-width="1.5"></path><path d="M1151.86 97.74L1151.86 97.74" stroke="rgba(14, 42, 71, 1)" stroke-width="1.5"></path><path d="M1151.86 97.74L1123.63 195.28" stroke="rgba(14, 42, 71, 1)" stroke-width="1.5"></path><path d="M1151.86 97.74L1243.2 53.34" stroke="rgba(14, 42, 71, 1)" stroke-width="1.5"></path><path d="M1151.86 97.74L1275.5 235.98" stroke="rgba(14, 42, 71, 1)" stroke-width="1.5"></path><path d="M1151.86 97.74L988.65 226.39" stroke="rgba(14, 42, 71, 1)" stroke-width="1.5"></path><path d="M1123.63 195.28L1123.63 195.28" stroke="rgba(14, 42, 71, 1)" stroke-width="1.5"></path><path d="M1123.63 195.28L988.65 226.39" stroke="rgba(14, 42, 71, 1)" stroke-width="1.5"></path><path d="M1123.63 195.28L1275.5 235.98" stroke="rgba(14, 42, 71, 1)" stroke-width="1.5"></path><path d="M1123.63 195.28L1243.2 53.34" stroke="rgba(14, 42, 71, 1)" stroke-width="1.5"></path><path d="M1123.63 195.28L991.68 350.69" stroke="rgba(14, 42, 71, 1)" stroke-width="1.5"></path><path d="M1094.31 403.51L1094.31 403.51" stroke="rgba(14, 42, 71, 1)" stroke-width="1.5"></path><path d="M1094.31 403.51L1117.53 500.1" stroke="rgba(14, 42, 71, 1)" stroke-width="1.5"></path><path d="M1094.31 403.51L988.65 226.39" stroke="rgba(14, 42, 71, 1)" stroke-width="1.5"></path><path d="M1094.31 403.51L1123.63 195.28" stroke="rgba(14, 42, 71, 1)" stroke-width="1.5"></path><path d="M1117.53 500.1L1117.53 500.1" stroke="rgba(14, 42, 71, 1)" stroke-width="1.5"></path><path d="M1117.53 500.1L1110.97 668.09" stroke="rgba(14, 42, 71, 1)" stroke-width="1.5"></path><path d="M1110.97 668.09L1110.97 668.09" stroke="rgba(14, 42, 71, 1)" stroke-width="1.5"></path><path d="M1110.97 668.09L1242.85 658.63" stroke="rgba(14, 42, 71, 1)" stroke-width="1.5"></path><path d="M1284.19 -86.02L1284.19 -86.02" stroke="rgba(14, 42, 71, 1)" stroke-width="1.5"></path><path d="M1284.19 -86.02L1243.2 53.34" stroke="rgba(14, 42, 71, 1)" stroke-width="1.5"></path><path d="M1284.19 -86.02L1432.25 -84.37" stroke="rgba(14, 42, 71, 1)" stroke-width="1.5"></path><path d="M1284.19 -86.02L1455.05 60.04" stroke="rgba(14, 42, 71, 1)" stroke-width="1.5"></path><path d="M1284.19 -86.02L1151.86 97.74" stroke="rgba(14, 42, 71, 1)" stroke-width="1.5"></path><path d="M1284.19 -86.02L1539.97 -70.1" stroke="rgba(14, 42, 71, 1)" stroke-width="1.5"></path><path d="M1243.2 53.34L1243.2 53.34" stroke="rgba(14, 42, 71, 1)" stroke-width="1.5"></path><path d="M1243.2 53.34L1275.5 235.98" stroke="rgba(14, 42, 71, 1)" stroke-width="1.5"></path><path d="M1243.2 53.34L1455.05 60.04" stroke="rgba(14, 42, 71, 1)" stroke-width="1.5"></path><path d="M1275.5 235.98L1275.5 235.98" stroke="rgba(14, 42, 71, 1)" stroke-width="1.5"></path><path d="M1275.5 235.98L1398.66 214.42" stroke="rgba(14, 42, 71, 1)" stroke-width="1.5"></path><path d="M1275.5 235.98L1306.42 357.59" stroke="rgba(14, 42, 71, 1)" stroke-width="1.5"></path><path d="M1306.42 357.59L1306.42 357.59" stroke="rgba(14, 42, 71, 1)" stroke-width="1.5"></path><path d="M1306.42 357.59L1394.47 381.79" stroke="rgba(14, 42, 71, 1)" stroke-width="1.5"></path><path d="M1306.42 357.59L1301.11 500.25" stroke="rgba(14, 42, 71, 1)" stroke-width="1.5"></path><path d="M1306.42 357.59L1398.66 214.42" stroke="rgba(14, 42, 71, 1)" stroke-width="1.5"></path><path d="M1301.11 500.25L1301.11 500.25" stroke="rgba(14, 42, 71, 1)" stroke-width="1.5"></path><path d="M1301.11 500.25L1394.47 381.79" stroke="rgba(14, 42, 71, 1)" stroke-width="1.5"></path><path d="M1301.11 500.25L1242.85 658.63" stroke="rgba(14, 42, 71, 1)" stroke-width="1.5"></path><path d="M1242.85 658.63L1242.85 658.63" stroke="rgba(14, 42, 71, 1)" stroke-width="1.5"></path><path d="M1432.25 -84.37L1432.25 -84.37" stroke="rgba(14, 42, 71, 1)" stroke-width="1.5"></path><path d="M1432.25 -84.37L1539.97 -70.1" stroke="rgba(14, 42, 71, 1)" stroke-width="1.5"></path><path d="M1432.25 -84.37L1455.05 60.04" stroke="rgba(14, 42, 71, 1)" stroke-width="1.5"></path><path d="M1455.05 60.04L1455.05 60.04" stroke="rgba(14, 42, 71, 1)" stroke-width="1.5"></path><path d="M1455.05 60.04L1591.51 86.6" stroke="rgba(14, 42, 71, 1)" stroke-width="1.5"></path><path d="M1455.05 60.04L1539.97 -70.1" stroke="rgba(14, 42, 71, 1)" stroke-width="1.5"></path><path d="M1455.05 60.04L1398.66 214.42" stroke="rgba(14, 42, 71, 1)" stroke-width="1.5"></path><path d="M1455.05 60.04L1576.24 220.55" stroke="rgba(14, 42, 71, 1)" stroke-width="1.5"></path><path d="M1398.66 214.42L1398.66 214.42" stroke="rgba(14, 42, 71, 1)" stroke-width="1.5"></path><path d="M1398.66 214.42L1394.47 381.79" stroke="rgba(14, 42, 71, 1)" stroke-width="1.5"></path><path d="M1398.66 214.42L1576.24 220.55" stroke="rgba(14, 42, 71, 1)" stroke-width="1.5"></path><path d="M1398.66 214.42L1243.2 53.34" stroke="rgba(14, 42, 71, 1)" stroke-width="1.5"></path><path d="M1394.47 381.79L1394.47 381.79" stroke="rgba(14, 42, 71, 1)" stroke-width="1.5"></path><path d="M1394.47 381.79L1275.5 235.98" stroke="rgba(14, 42, 71, 1)" stroke-width="1.5"></path><path d="M1434.74 667.88L1434.74 667.88" stroke="rgba(14, 42, 71, 1)" stroke-width="1.5"></path><path d="M1434.74 667.88L1599.91 639.49" stroke="rgba(14, 42, 71, 1)" stroke-width="1.5"></path><path d="M1434.74 667.88L1242.85 658.63" stroke="rgba(14, 42, 71, 1)" stroke-width="1.5"></path><path d="M1434.74 667.88L1301.11 500.25" stroke="rgba(14, 42, 71, 1)" stroke-width="1.5"></path><path d="M1434.74 667.88L1590.5 499.43" stroke="rgba(14, 42, 71, 1)" stroke-width="1.5"></path><path d="M1539.97 -70.1L1539.97 -70.1" stroke="rgba(14, 42, 71, 1)" stroke-width="1.5"></path><path d="M1539.97 -70.1L1591.51 86.6" stroke="rgba(14, 42, 71, 1)" stroke-width="1.5"></path><path d="M1591.51 86.6L1591.51 86.6" stroke="rgba(14, 42, 71, 1)" stroke-width="1.5"></path><path d="M1591.51 86.6L1576.24 220.55" stroke="rgba(14, 42, 71, 1)" stroke-width="1.5"></path><path d="M1591.51 86.6L1398.66 214.42" stroke="rgba(14, 42, 71, 1)" stroke-width="1.5"></path><path d="M1591.51 86.6L1432.25 -84.37" stroke="rgba(14, 42, 71, 1)" stroke-width="1.5"></path><path d="M1576.24 220.55L1576.24 220.55" stroke="rgba(14, 42, 71, 1)" stroke-width="1.5"></path><path d="M1576.24 220.55L1585.72 344.77" stroke="rgba(14, 42, 71, 1)" stroke-width="1.5"></path><path d="M1585.72 344.77L1585.72 344.77" stroke="rgba(14, 42, 71, 1)" stroke-width="1.5"></path><path d="M1585.72 344.77L1590.5 499.43" stroke="rgba(14, 42, 71, 1)" stroke-width="1.5"></path><path d="M1585.72 344.77L1394.47 381.79" stroke="rgba(14, 42, 71, 1)" stroke-width="1.5"></path><path d="M1585.72 344.77L1398.66 214.42" stroke="rgba(14, 42, 71, 1)" stroke-width="1.5"></path><path d="M1585.72 344.77L1591.51 86.6" stroke="rgba(14, 42, 71, 1)" stroke-width="1.5"></path><path d="M1590.5 499.43L1590.5 499.43" stroke="rgba(14, 42, 71, 1)" stroke-width="1.5"></path><path d="M1590.5 499.43L1599.91 639.49" stroke="rgba(14, 42, 71, 1)" stroke-width="1.5"></path><path d="M1590.5 499.43L1394.47 381.79" stroke="rgba(14, 42, 71, 1)" stroke-width="1.5"></path><path d="M1599.91 639.49L1599.91 639.49" stroke="rgba(14, 42, 71, 1)" stroke-width="1.5"></path><path d="M1599.91 639.49L1585.72 344.77" stroke="rgba(14, 42, 71, 1)" stroke-width="1.5"></path><path d="M1599.91 639.49L1394.47 381.79" stroke="rgba(14, 42, 71, 1)" stroke-width="1.5"></path><path d="M1599.91 639.49L1301.11 500.25" stroke="rgba(14, 42, 71, 1)" stroke-width="1.5"></path><circle r="5" cx="-91.8" cy="373.18" fill="rgba(14, 42, 71, 1)"></circle><circle r="5" cx="-39.4" cy="555.07" fill="rgba(14, 42, 71, 1)"></circle><circle r="5" cx="-85.65" cy="671.62" fill="rgba(14, 42, 71, 1)"></circle><circle r="5" cx="70.95" cy="365.5" fill="rgba(14, 42, 71, 1)"></circle><circle r="5" cx="84.17" cy="544.25" fill="rgba(14, 42, 71, 1)"></circle><circle r="5" cx="250.63" cy="346.91" fill="rgba(14, 42, 71, 1)"></circle><circle r="5" cx="236.22" cy="544.69" fill="rgba(14, 42, 71, 1)"></circle><circle r="5" cx="187.51" cy="699.71" fill="rgba(14, 42, 71, 1)"></circle><circle r="5" cx="405.63" cy="397.2" fill="rgba(14, 42, 71, 1)"></circle><circle r="5" cx="364.54" cy="700.08" fill="rgba(14, 42, 71, 1)"></circle><circle r="5" cx="560.17" cy="390.77" fill="rgba(14, 42, 71, 1)"></circle><circle r="5" cx="515.83" cy="537.3" fill="rgba(14, 42, 71, 1)"></circle><circle r="5" cx="491.1" cy="673.31" fill="rgba(14, 42, 71, 1)"></circle><circle r="5" cx="705.81" cy="256.63" fill="rgba(14, 42, 71, 1)"></circle><circle r="5" cx="644.29" cy="342.11" fill="rgba(14, 42, 71, 1)"></circle><circle r="5" cx="656.53" cy="540.65" fill="rgba(14, 42, 71, 1)"></circle><circle r="5" cx="677.75" cy="665.74" fill="rgba(14, 42, 71, 1)"></circle><circle r="5" cx="862.19" cy="90.93" fill="rgba(14, 42, 71, 1)"></circle><circle r="5" cx="849.06" cy="217.19" fill="rgba(14, 42, 71, 1)"></circle><circle r="5" cx="855.85" cy="399.44" fill="rgba(14, 42, 71, 1)"></circle><circle r="5" cx="848.85" cy="513.92" fill="rgba(14, 42, 71, 1)"></circle><circle r="5" cx="850.51" cy="650.74" fill="rgba(14, 42, 71, 1)"></circle><circle r="5" cx="997.38" cy="-108.78" fill="rgba(14, 42, 71, 1)"></circle><circle r="5" cx="943.89" cy="54.07" fill="rgba(14, 42, 71, 1)"></circle><circle r="5" cx="988.65" cy="226.39" fill="rgba(14, 42, 71, 1)"></circle><circle r="5" cx="991.68" cy="350.69" fill="rgba(14, 42, 71, 1)"></circle><circle r="5" cx="1008.86" cy="538.91" fill="rgba(14, 42, 71, 1)"></circle><circle r="5" cx="955.17" cy="710.15" fill="rgba(14, 42, 71, 1)"></circle><circle r="5" cx="1152.61" cy="-86.56" fill="rgba(14, 42, 71, 1)"></circle><circle r="5" cx="1151.86" cy="97.74" fill="rgba(14, 42, 71, 1)"></circle><circle r="5" cx="1123.63" cy="195.28" fill="rgba(14, 42, 71, 1)"></circle><circle r="5" cx="1094.31" cy="403.51" fill="rgba(14, 42, 71, 1)"></circle><circle r="5" cx="1117.53" cy="500.1" fill="rgba(14, 42, 71, 1)"></circle><circle r="5" cx="1110.97" cy="668.09" fill="rgba(14, 42, 71, 1)"></circle><circle r="5" cx="1284.19" cy="-86.02" fill="rgba(14, 42, 71, 1)"></circle><circle r="5" cx="1243.2" cy="53.34" fill="rgba(14, 42, 71, 1)"></circle><circle r="5" cx="1275.5" cy="235.98" fill="rgba(14, 42, 71, 1)"></circle><circle r="5" cx="1306.42" cy="357.59" fill="rgba(14, 42, 71, 1)"></circle><circle r="5" cx="1301.11" cy="500.25" fill="rgba(14, 42, 71, 1)"></circle><circle r="5" cx="1242.85" cy="658.63" fill="rgba(14, 42, 71, 1)"></circle><circle r="5" cx="1432.25" cy="-84.37" fill="rgba(14, 42, 71, 1)"></circle><circle r="5" cx="1455.05" cy="60.04" fill="rgba(14, 42, 71, 1)"></circle><circle r="5" cx="1398.66" cy="214.42" fill="rgba(14, 42, 71, 1)"></circle><circle r="5" cx="1394.47" cy="381.79" fill="rgba(14, 42, 71, 1)"></circle><circle r="5" cx="1434.74" cy="667.88" fill="rgba(14, 42, 71, 1)"></circle><circle r="5" cx="1539.97" cy="-70.1" fill="rgba(14, 42, 71, 1)"></circle><circle r="5" cx="1591.51" cy="86.6" fill="rgba(14, 42, 71, 1)"></circle><circle r="5" cx="1576.24" cy="220.55" fill="rgba(14, 42, 71, 1)"></circle><circle r="5" cx="1585.72" cy="344.77" fill="rgba(14, 42, 71, 1)"></circle><circle r="5" cx="1590.5" cy="499.43" fill="rgba(14, 42, 71, 1)"></circle><circle r="5" cx="1599.91" cy="639.49" fill="rgba(14, 42, 71, 1)"></circle><path d="M-68.03 661.28L-68.03 661.28" stroke="hsl(277.6, 45.9%, 73.4%)" stroke-width="1.5"></path><path d="M-68.03 661.28L-109.95 547.71" stroke="hsl(277.6, 45.9%, 73.4%)" stroke-width="1.5"></path><path d="M412.46 547.05L412.46 547.05" stroke="hsl(277.6, 45.9%, 73.4%)" stroke-width="1.5"></path><path d="M412.46 547.05L527.79 547.54" stroke="hsl(277.6, 45.9%, 73.4%)" stroke-width="1.5"></path><path d="M412.46 547.05L353.17 663.81" stroke="hsl(277.6, 45.9%, 73.4%)" stroke-width="1.5"></path><path d="M412.46 547.05L251.56 499.76" stroke="hsl(277.6, 45.9%, 73.4%)" stroke-width="1.5"></path><path d="M412.46 547.05L259.35 639.58" stroke="hsl(277.6, 45.9%, 73.4%)" stroke-width="1.5"></path><path d="M412.46 547.05L538.53 675.26" stroke="hsl(277.6, 45.9%, 73.4%)" stroke-width="1.5"></path><path d="M412.46 547.05L700.7 503.82" stroke="hsl(277.6, 45.9%, 73.4%)" stroke-width="1.5"></path><path d="M527.79 547.54L527.79 547.54" stroke="hsl(277.6, 45.9%, 73.4%)" stroke-width="1.5"></path><path d="M527.79 547.54L538.53 675.26" stroke="hsl(277.6, 45.9%, 73.4%)" stroke-width="1.5"></path><path d="M958.42 357.95L958.42 357.95" stroke="hsl(277.6, 45.9%, 73.4%)" stroke-width="1.5"></path><path d="M958.42 357.95L860.27 364.99" stroke="hsl(277.6, 45.9%, 73.4%)" stroke-width="1.5"></path><path d="M958.42 357.95L1104.26 392.07" stroke="hsl(277.6, 45.9%, 73.4%)" stroke-width="1.5"></path><path d="M958.42 357.95L957.77 509.76" stroke="hsl(277.6, 45.9%, 73.4%)" stroke-width="1.5"></path><path d="M958.42 357.95L1108.88 259.18" stroke="hsl(277.6, 45.9%, 73.4%)" stroke-width="1.5"></path><path d="M958.42 357.95L842.1 512.37" stroke="hsl(277.6, 45.9%, 73.4%)" stroke-width="1.5"></path><path d="M958.42 357.95L1160.04 507.11" stroke="hsl(277.6, 45.9%, 73.4%)" stroke-width="1.5"></path><path d="M1108.88 259.18L1108.88 259.18" stroke="hsl(277.6, 45.9%, 73.4%)" stroke-width="1.5"></path><path d="M1108.88 259.18L1104.26 392.07" stroke="hsl(277.6, 45.9%, 73.4%)" stroke-width="1.5"></path><path d="M1108.88 259.18L1245.1 233.82" stroke="hsl(277.6, 45.9%, 73.4%)" stroke-width="1.5"></path><path d="M1108.88 259.18L1140.18 94.72" stroke="hsl(277.6, 45.9%, 73.4%)" stroke-width="1.5"></path><path d="M1108.88 259.18L1281.48 372.35" stroke="hsl(277.6, 45.9%, 73.4%)" stroke-width="1.5"></path><path d="M1305.04 -85.17L1305.04 -85.17" stroke="hsl(277.6, 45.9%, 73.4%)" stroke-width="1.5"></path><path d="M1305.04 -85.17L1393.05 -93.1" stroke="hsl(277.6, 45.9%, 73.4%)" stroke-width="1.5"></path><path d="M1305.04 -85.17L1264.18 65.53" stroke="hsl(277.6, 45.9%, 73.4%)" stroke-width="1.5"></path><path d="M1268.89 507.34L1268.89 507.34" stroke="hsl(277.6, 45.9%, 73.4%)" stroke-width="1.5"></path><path d="M1268.89 507.34L1160.04 507.11" stroke="hsl(277.6, 45.9%, 73.4%)" stroke-width="1.5"></path><path d="M1268.89 507.34L1281.48 372.35" stroke="hsl(277.6, 45.9%, 73.4%)" stroke-width="1.5"></path><path d="M1268.89 507.34L1251.79 654.6" stroke="hsl(277.6, 45.9%, 73.4%)" stroke-width="1.5"></path><path d="M1268.89 507.34L1451.6 500.59" stroke="hsl(277.6, 45.9%, 73.4%)" stroke-width="1.5"></path><path d="M1268.89 507.34L1391.7 366.7" stroke="hsl(277.6, 45.9%, 73.4%)" stroke-width="1.5"></path><path d="M1393.05 -93.1L1393.05 -93.1" stroke="hsl(277.6, 45.9%, 73.4%)" stroke-width="1.5"></path><path d="M1393.05 -93.1L1412.16 52.55" stroke="hsl(277.6, 45.9%, 73.4%)" stroke-width="1.5"></path><path d="M1393.05 -93.1L1575.5 -88.36" stroke="hsl(277.6, 45.9%, 73.4%)" stroke-width="1.5"></path><path d="M1393.05 -93.1L1264.18 65.53" stroke="hsl(277.6, 45.9%, 73.4%)" stroke-width="1.5"></path><path d="M1393.05 -93.1L1604.28 75.17" stroke="hsl(277.6, 45.9%, 73.4%)" stroke-width="1.5"></path><path d="M1575.5 -88.36L1575.5 -88.36" stroke="hsl(277.6, 45.9%, 73.4%)" stroke-width="1.5"></path><path d="M1575.5 -88.36L1604.28 75.17" stroke="hsl(277.6, 45.9%, 73.4%)" stroke-width="1.5"></path><path d="M1575.5 -88.36L1412.16 52.55" stroke="hsl(277.6, 45.9%, 73.4%)" stroke-width="1.5"></path><path d="M1557.24 488.92L1557.24 488.92" stroke="hsl(277.6, 45.9%, 73.4%)" stroke-width="1.5"></path><path d="M1557.24 488.92L1591.28 405.03" stroke="hsl(277.6, 45.9%, 73.4%)" stroke-width="1.5"></path><path d="M1557.24 488.92L1451.6 500.59" stroke="hsl(277.6, 45.9%, 73.4%)" stroke-width="1.5"></path><path d="M1557.24 488.92L1572.96 650.68" stroke="hsl(277.6, 45.9%, 73.4%)" stroke-width="1.5"></path><path d="M1557.24 488.92L1391.7 366.7" stroke="hsl(277.6, 45.9%, 73.4%)" stroke-width="1.5"></path><path d="M1557.24 488.92L1540.59 256.33" stroke="hsl(277.6, 45.9%, 73.4%)" stroke-width="1.5"></path><path d="M1557.24 488.92L1458.79 706.01" stroke="hsl(277.6, 45.9%, 73.4%)" stroke-width="1.5"></path><path d="M-109.95 547.71L-109.95 547.71" stroke="hsl(277.6, 45.9%, 73.4%)" stroke-width="1.5"></path><path d="M-109.95 547.71L55.09 489.7" stroke="hsl(277.6, 45.9%, 73.4%)" stroke-width="1.5"></path><path d="M55.09 489.7L55.09 489.7" stroke="hsl(277.6, 45.9%, 73.4%)" stroke-width="1.5"></path><path d="M55.09 489.7L82.35 643.11" stroke="hsl(277.6, 45.9%, 73.4%)" stroke-width="1.5"></path><path d="M82.35 643.11L82.35 643.11" stroke="hsl(277.6, 45.9%, 73.4%)" stroke-width="1.5"></path><path d="M82.35 643.11L-68.03 661.28" stroke="hsl(277.6, 45.9%, 73.4%)" stroke-width="1.5"></path><path d="M82.35 643.11L259.35 639.58" stroke="hsl(277.6, 45.9%, 73.4%)" stroke-width="1.5"></path><path d="M82.35 643.11L-109.95 547.71" stroke="hsl(277.6, 45.9%, 73.4%)" stroke-width="1.5"></path><path d="M251.56 499.76L251.56 499.76" stroke="hsl(277.6, 45.9%, 73.4%)" stroke-width="1.5"></path><path d="M251.56 499.76L259.35 639.58" stroke="hsl(277.6, 45.9%, 73.4%)" stroke-width="1.5"></path><path d="M251.56 499.76L353.17 663.81" stroke="hsl(277.6, 45.9%, 73.4%)" stroke-width="1.5"></path><path d="M251.56 499.76L55.09 489.7" stroke="hsl(277.6, 45.9%, 73.4%)" stroke-width="1.5"></path><path d="M259.35 639.58L259.35 639.58" stroke="hsl(277.6, 45.9%, 73.4%)" stroke-width="1.5"></path><path d="M259.35 639.58L353.17 663.81" stroke="hsl(277.6, 45.9%, 73.4%)" stroke-width="1.5"></path><path d="M259.35 639.58L55.09 489.7" stroke="hsl(277.6, 45.9%, 73.4%)" stroke-width="1.5"></path><path d="M259.35 639.58L538.53 675.26" stroke="hsl(277.6, 45.9%, 73.4%)" stroke-width="1.5"></path><path d="M353.17 663.81L353.17 663.81" stroke="hsl(277.6, 45.9%, 73.4%)" stroke-width="1.5"></path><path d="M353.17 663.81L538.53 675.26" stroke="hsl(277.6, 45.9%, 73.4%)" stroke-width="1.5"></path><path d="M353.17 663.81L527.79 547.54" stroke="hsl(277.6, 45.9%, 73.4%)" stroke-width="1.5"></path><path d="M538.53 675.26L538.53 675.26" stroke="hsl(277.6, 45.9%, 73.4%)" stroke-width="1.5"></path><path d="M538.53 675.26L703.71 689.71" stroke="hsl(277.6, 45.9%, 73.4%)" stroke-width="1.5"></path><path d="M700.7 503.82L700.7 503.82" stroke="hsl(277.6, 45.9%, 73.4%)" stroke-width="1.5"></path><path d="M700.7 503.82L842.1 512.37" stroke="hsl(277.6, 45.9%, 73.4%)" stroke-width="1.5"></path><path d="M700.7 503.82L527.79 547.54" stroke="hsl(277.6, 45.9%, 73.4%)" stroke-width="1.5"></path><path d="M700.7 503.82L703.71 689.71" stroke="hsl(277.6, 45.9%, 73.4%)" stroke-width="1.5"></path><path d="M703.71 689.71L703.71 689.71" stroke="hsl(277.6, 45.9%, 73.4%)" stroke-width="1.5"></path><path d="M703.71 689.71L828.03 709.88" stroke="hsl(277.6, 45.9%, 73.4%)" stroke-width="1.5"></path><path d="M860.27 364.99L860.27 364.99" stroke="hsl(277.6, 45.9%, 73.4%)" stroke-width="1.5"></path><path d="M860.27 364.99L842.1 512.37" stroke="hsl(277.6, 45.9%, 73.4%)" stroke-width="1.5"></path><path d="M860.27 364.99L957.77 509.76" stroke="hsl(277.6, 45.9%, 73.4%)" stroke-width="1.5"></path><path d="M860.27 364.99L700.7 503.82" stroke="hsl(277.6, 45.9%, 73.4%)" stroke-width="1.5"></path><path d="M860.27 364.99L1104.26 392.07" stroke="hsl(277.6, 45.9%, 73.4%)" stroke-width="1.5"></path><path d="M842.1 512.37L842.1 512.37" stroke="hsl(277.6, 45.9%, 73.4%)" stroke-width="1.5"></path><path d="M842.1 512.37L957.77 509.76" stroke="hsl(277.6, 45.9%, 73.4%)" stroke-width="1.5"></path><path d="M828.03 709.88L828.03 709.88" stroke="hsl(277.6, 45.9%, 73.4%)" stroke-width="1.5"></path><path d="M828.03 709.88L982.25 679.58" stroke="hsl(277.6, 45.9%, 73.4%)" stroke-width="1.5"></path><path d="M828.03 709.88L842.1 512.37" stroke="hsl(277.6, 45.9%, 73.4%)" stroke-width="1.5"></path><path d="M828.03 709.88L957.77 509.76" stroke="hsl(277.6, 45.9%, 73.4%)" stroke-width="1.5"></path><path d="M828.03 709.88L700.7 503.82" stroke="hsl(277.6, 45.9%, 73.4%)" stroke-width="1.5"></path><path d="M828.03 709.88L538.53 675.26" stroke="hsl(277.6, 45.9%, 73.4%)" stroke-width="1.5"></path><path d="M957.77 509.76L957.77 509.76" stroke="hsl(277.6, 45.9%, 73.4%)" stroke-width="1.5"></path><path d="M957.77 509.76L982.25 679.58" stroke="hsl(277.6, 45.9%, 73.4%)" stroke-width="1.5"></path><path d="M982.25 679.58L982.25 679.58" stroke="hsl(277.6, 45.9%, 73.4%)" stroke-width="1.5"></path><path d="M982.25 679.58L1157.18 696.08" stroke="hsl(277.6, 45.9%, 73.4%)" stroke-width="1.5"></path><path d="M982.25 679.58L842.1 512.37" stroke="hsl(277.6, 45.9%, 73.4%)" stroke-width="1.5"></path><path d="M1140.18 94.72L1140.18 94.72" stroke="hsl(277.6, 45.9%, 73.4%)" stroke-width="1.5"></path><path d="M1140.18 94.72L1264.18 65.53" stroke="hsl(277.6, 45.9%, 73.4%)" stroke-width="1.5"></path><path d="M1140.18 94.72L1245.1 233.82" stroke="hsl(277.6, 45.9%, 73.4%)" stroke-width="1.5"></path><path d="M1140.18 94.72L1305.04 -85.17" stroke="hsl(277.6, 45.9%, 73.4%)" stroke-width="1.5"></path><path d="M1140.18 94.72L1412.16 52.55" stroke="hsl(277.6, 45.9%, 73.4%)" stroke-width="1.5"></path><path d="M1140.18 94.72L1411.92 192.43" stroke="hsl(277.6, 45.9%, 73.4%)" stroke-width="1.5"></path><path d="M1104.26 392.07L1104.26 392.07" stroke="hsl(277.6, 45.9%, 73.4%)" stroke-width="1.5"></path><path d="M1104.26 392.07L1160.04 507.11" stroke="hsl(277.6, 45.9%, 73.4%)" stroke-width="1.5"></path><path d="M1160.04 507.11L1160.04 507.11" stroke="hsl(277.6, 45.9%, 73.4%)" stroke-width="1.5"></path><path d="M1157.18 696.08L1157.18 696.08" stroke="hsl(277.6, 45.9%, 73.4%)" stroke-width="1.5"></path><path d="M1157.18 696.08L1251.79 654.6" stroke="hsl(277.6, 45.9%, 73.4%)" stroke-width="1.5"></path><path d="M1157.18 696.08L1160.04 507.11" stroke="hsl(277.6, 45.9%, 73.4%)" stroke-width="1.5"></path><path d="M1264.18 65.53L1264.18 65.53" stroke="hsl(277.6, 45.9%, 73.4%)" stroke-width="1.5"></path><path d="M1264.18 65.53L1412.16 52.55" stroke="hsl(277.6, 45.9%, 73.4%)" stroke-width="1.5"></path><path d="M1245.1 233.82L1245.1 233.82" stroke="hsl(277.6, 45.9%, 73.4%)" stroke-width="1.5"></path><path d="M1245.1 233.82L1281.48 372.35" stroke="hsl(277.6, 45.9%, 73.4%)" stroke-width="1.5"></path><path d="M1245.1 233.82L1264.18 65.53" stroke="hsl(277.6, 45.9%, 73.4%)" stroke-width="1.5"></path><path d="M1245.1 233.82L1411.92 192.43" stroke="hsl(277.6, 45.9%, 73.4%)" stroke-width="1.5"></path><path d="M1281.48 372.35L1281.48 372.35" stroke="hsl(277.6, 45.9%, 73.4%)" stroke-width="1.5"></path><path d="M1281.48 372.35L1391.7 366.7" stroke="hsl(277.6, 45.9%, 73.4%)" stroke-width="1.5"></path><path d="M1281.48 372.35L1104.26 392.07" stroke="hsl(277.6, 45.9%, 73.4%)" stroke-width="1.5"></path><path d="M1281.48 372.35L1160.04 507.11" stroke="hsl(277.6, 45.9%, 73.4%)" stroke-width="1.5"></path><path d="M1251.79 654.6L1251.79 654.6" stroke="hsl(277.6, 45.9%, 73.4%)" stroke-width="1.5"></path><path d="M1251.79 654.6L1160.04 507.11" stroke="hsl(277.6, 45.9%, 73.4%)" stroke-width="1.5"></path><path d="M1412.16 52.55L1412.16 52.55" stroke="hsl(277.6, 45.9%, 73.4%)" stroke-width="1.5"></path><path d="M1412.16 52.55L1411.92 192.43" stroke="hsl(277.6, 45.9%, 73.4%)" stroke-width="1.5"></path><path d="M1412.16 52.55L1305.04 -85.17" stroke="hsl(277.6, 45.9%, 73.4%)" stroke-width="1.5"></path><path d="M1412.16 52.55L1604.28 75.17" stroke="hsl(277.6, 45.9%, 73.4%)" stroke-width="1.5"></path><path d="M1411.92 192.43L1411.92 192.43" stroke="hsl(277.6, 45.9%, 73.4%)" stroke-width="1.5"></path><path d="M1391.7 366.7L1391.7 366.7" stroke="hsl(277.6, 45.9%, 73.4%)" stroke-width="1.5"></path><path d="M1391.7 366.7L1451.6 500.59" stroke="hsl(277.6, 45.9%, 73.4%)" stroke-width="1.5"></path><path d="M1451.6 500.59L1451.6 500.59" stroke="hsl(277.6, 45.9%, 73.4%)" stroke-width="1.5"></path><path d="M1451.6 500.59L1591.28 405.03" stroke="hsl(277.6, 45.9%, 73.4%)" stroke-width="1.5"></path><path d="M1458.79 706.01L1458.79 706.01" stroke="hsl(277.6, 45.9%, 73.4%)" stroke-width="1.5"></path><path d="M1458.79 706.01L1572.96 650.68" stroke="hsl(277.6, 45.9%, 73.4%)" stroke-width="1.5"></path><path d="M1458.79 706.01L1451.6 500.59" stroke="hsl(277.6, 45.9%, 73.4%)" stroke-width="1.5"></path><path d="M1458.79 706.01L1251.79 654.6" stroke="hsl(277.6, 45.9%, 73.4%)" stroke-width="1.5"></path><path d="M1604.28 75.17L1604.28 75.17" stroke="hsl(277.6, 45.9%, 73.4%)" stroke-width="1.5"></path><path d="M1540.59 256.33L1540.59 256.33" stroke="hsl(277.6, 45.9%, 73.4%)" stroke-width="1.5"></path><path d="M1540.59 256.33L1411.92 192.43" stroke="hsl(277.6, 45.9%, 73.4%)" stroke-width="1.5"></path><path d="M1591.28 405.03L1591.28 405.03" stroke="hsl(277.6, 45.9%, 73.4%)" stroke-width="1.5"></path><path d="M1591.28 405.03L1540.59 256.33" stroke="hsl(277.6, 45.9%, 73.4%)" stroke-width="1.5"></path><path d="M1572.96 650.68L1572.96 650.68" stroke="hsl(277.6, 45.9%, 73.4%)" stroke-width="1.5"></path><path d="M1572.96 650.68L1451.6 500.59" stroke="hsl(277.6, 45.9%, 73.4%)" stroke-width="1.5"></path><circle r="25" cx="-68.03" cy="661.28" fill="url(#SvgjsRadialGradient1051)"></circle><circle r="25" cx="412.46" cy="547.05" fill="url(#SvgjsRadialGradient1051)"></circle><circle r="25" cx="527.79" cy="547.54" fill="url(#SvgjsRadialGradient1051)"></circle><circle r="25" cx="958.42" cy="357.95" fill="url(#SvgjsRadialGradient1051)"></circle><circle r="25" cx="1108.88" cy="259.18" fill="url(#SvgjsRadialGradient1051)"></circle><circle r="25" cx="1305.04" cy="-85.17" fill="url(#SvgjsRadialGradient1051)"></circle><circle r="25" cx="1268.89" cy="507.34" fill="url(#SvgjsRadialGradient1051)"></circle><circle r="25" cx="1393.05" cy="-93.1" fill="url(#SvgjsRadialGradient1051)"></circle><circle r="25" cx="1575.5" cy="-88.36" fill="url(#SvgjsRadialGradient1051)"></circle><circle r="25" cx="1557.24" cy="488.92" fill="url(#SvgjsRadialGradient1051)"></circle><circle r="5" cx="-109.95" cy="547.71" fill="#ceaee1"></circle><circle r="5" cx="55.09" cy="489.7" fill="#ceaee1"></circle><circle r="5" cx="82.35" cy="643.11" fill="#ceaee1"></circle><circle r="5" cx="251.56" cy="499.76" fill="#ceaee1"></circle><circle r="5" cx="259.35" cy="639.58" fill="#ceaee1"></circle><circle r="5" cx="353.17" cy="663.81" fill="#ceaee1"></circle><circle r="5" cx="538.53" cy="675.26" fill="#ceaee1"></circle><circle r="5" cx="700.7" cy="503.82" fill="#ceaee1"></circle><circle r="5" cx="703.71" cy="689.71" fill="#ceaee1"></circle><circle r="5" cx="860.27" cy="364.99" fill="#ceaee1"></circle><circle r="5" cx="842.1" cy="512.37" fill="#ceaee1"></circle><circle r="5" cx="828.03" cy="709.88" fill="#ceaee1"></circle><circle r="5" cx="957.77" cy="509.76" fill="#ceaee1"></circle><circle r="5" cx="982.25" cy="679.58" fill="#ceaee1"></circle><circle r="5" cx="1140.18" cy="94.72" fill="#ceaee1"></circle><circle r="5" cx="1104.26" cy="392.07" fill="#ceaee1"></circle><circle r="5" cx="1160.04" cy="507.11" fill="#ceaee1"></circle><circle r="5" cx="1157.18" cy="696.08" fill="#ceaee1"></circle><circle r="5" cx="1264.18" cy="65.53" fill="#ceaee1"></circle><circle r="5" cx="1245.1" cy="233.82" fill="#ceaee1"></circle><circle r="5" cx="1281.48" cy="372.35" fill="#ceaee1"></circle><circle r="5" cx="1251.79" cy="654.6" fill="#ceaee1"></circle><circle r="5" cx="1412.16" cy="52.55" fill="#ceaee1"></circle><circle r="5" cx="1411.92" cy="192.43" fill="#ceaee1"></circle><circle r="5" cx="1391.7" cy="366.7" fill="#ceaee1"></circle><circle r="5" cx="1451.6" cy="500.59" fill="#ceaee1"></circle><circle r="5" cx="1458.79" cy="706.01" fill="#ceaee1"></circle><circle r="5" cx="1604.28" cy="75.17" fill="#ceaee1"></circle><circle r="5" cx="1540.59" cy="256.33" fill="#ceaee1"></circle><circle r="5" cx="1591.28" cy="405.03" fill="#ceaee1"></circle><circle r="5" cx="1572.96" cy="650.68" fill="#ceaee1"></circle></g><defs><mask id="SvgjsMask1050"><rect width="1440" height="560" fill="#ffffff"></rect></mask><radialGradient id="SvgjsRadialGradient1051"><stop stop-color="#ffffff" offset="0.1"></stop><stop stop-color="rgba(157, 93, 195, 1)" offset="0.2"></stop><stop stop-color="rgba(157, 93, 195, 0)" offset="1"></stop></radialGradient></defs></svg>